<svg width="34" height="34" viewBox="0 0 34 34" fill="none" xmlns="http://www.w3.org/2000/svg">
<path d="M29.0208 4.97914C25.8099 1.76827 21.5408 0 17 0C12.4592 0 8.19008 1.76827 4.97921 4.97921C1.76833 8.19008 0 12.4591 0 17.0001C0 21.5409 1.76827 25.8101 4.97914 29.0209C8.19002 32.2317 12.4591 34 16.9999 34C21.5408 34 25.8099 32.2317 29.0208 29.0209C32.2317 25.8099 34 21.5409 34 17C34 12.4591 32.2317 8.19008 29.0208 4.97914ZM27.6121 27.6122C24.7775 30.4467 21.0087 32.0078 16.9999 32.0078C12.9912 32.0078 9.22237 30.4467 6.38782 27.6122C3.5532 24.7776 1.99219 21.0088 1.99219 17.0001C1.99219 12.9913 3.55333 9.2225 6.38788 6.38788C9.2225 3.55327 12.9913 1.99219 17 1.99219C21.0087 1.99219 24.7775 3.55327 27.6122 6.38782C33.4636 12.2394 33.4636 21.7606 27.6121 27.6122Z" fill="#383838"/>
<path d="M24.4943 23.0857L18.4088 17.0002L24.4943 10.9147C24.8832 10.5257 24.8832 9.895 24.4942 9.50606C24.1053 9.11705 23.4746 9.11705 23.0856 9.50606L17.0001 15.5915L10.9145 9.50599C10.5256 9.11698 9.89488 9.11698 9.50587 9.50599C9.11686 9.895 9.11686 10.5257 9.50587 10.9147L15.5914 17.0002L9.50587 23.0857C9.11686 23.4747 9.11686 24.1054 9.50587 24.4944C9.70037 24.6889 9.95531 24.7861 10.2102 24.7861C10.4651 24.7861 10.72 24.6889 10.9145 24.4944L17.0001 18.4089L23.0856 24.4944C23.2801 24.6889 23.5351 24.7861 23.79 24.7861C24.0449 24.7861 24.2999 24.6889 24.4943 24.4944C24.8833 24.1054 24.8833 23.4747 24.4943 23.0857Z" fill="#383838"/>
</svg>
